<svg xmlns="http://www.w3.org/2000/svg" viewBox="0 0 16 16" width="256" height="256" shape-rendering="crispEdges">
  <!-- Animated: Cheer — bounces up, eyes become happy crescents, sparkles appear -->
  <rect width="16" height="16" fill="#1a1a2e"/>

  <!-- Sparkles (hidden initially, appear during bounce) -->
  <rect x="1" y="3" width="1" height="1" fill="#ffd166" opacity="0">
    <animate attributeName="opacity" values="0;0;1;1;0;0" dur="2s" repeatCount="indefinite"/>
  </rect>
  <rect x="14" y="2" width="1" height="1" fill="#ffd166" opacity="0">
    <animate attributeName="opacity" values="0;0;0;1;1;0" dur="2s" repeatCount="indefinite"/>
  </rect>
  <rect x="2" y="1" width="1" height="1" fill="#ffd166" opacity="0">
    <animate attributeName="opacity" values="0;0;1;0;0;0" dur="2s" repeatCount="indefinite"/>
  </rect>
  <rect x="13" y="4" width="1" height="1" fill="#ffd166" opacity="0">
    <animate attributeName="opacity" values="0;0;0;1;0;0" dur="2s" repeatCount="indefinite"/>
  </rect>
  <!-- Small sparkle dots -->
  <rect x="0" y="5" width="1" height="1" fill="#52b788" opacity="0">
    <animate attributeName="opacity" values="0;0;1;0;0;0" dur="2s" repeatCount="indefinite"/>
  </rect>
  <rect x="15" y="1" width="1" height="1" fill="#52b788" opacity="0">
    <animate attributeName="opacity" values="0;0;0;0;1;0" dur="2s" repeatCount="indefinite"/>
  </rect>

  <!-- Bouncing body -->
  <g>
    <animateTransform attributeName="transform" type="translate" values="0,0; 0,0; 0,-1; 0,0; 0,-0.5; 0,0" dur="2s" repeatCount="indefinite"/>

    <!-- Tree crown -->
    <rect x="7" y="1" width="2" height="1" fill="#2d6a4f"/>
    <rect x="6" y="2" width="4" height="1" fill="#40916c"/>
    <rect x="5" y="3" width="6" height="1" fill="#40916c"/>
    <rect x="6" y="4" width="4" height="1" fill="#2d6a4f"/>
    <rect x="4" y="5" width="8" height="1" fill="#40916c"/>
    <rect x="3" y="6" width="10" height="1" fill="#40916c"/>
    <rect x="5" y="7" width="6" height="1" fill="#2d6a4f"/>
    <rect x="3" y="8" width="10" height="1" fill="#52b788"/>
    <rect x="2" y="9" width="12" height="1" fill="#40916c"/>
    <rect x="2" y="10" width="12" height="1" fill="#2d6a4f"/>

    <!-- Eyes — same as static mascot -->
    <rect x="5" y="5" width="2" height="2" fill="#ffffff"/>
    <rect x="9" y="5" width="2" height="2" fill="#ffffff"/>
    <rect x="6" y="5" width="1" height="1" fill="#1a1a2e"/>
    <rect x="10" y="5" width="1" height="1" fill="#1a1a2e"/>

    <!-- Big open smile -->
    <rect x="6" y="8" width="4" height="1" fill="#1a4d2e"/>
    <rect x="7" y="9" width="2" height="1" fill="#1a4d2e"/>

    <!-- Trunk -->
    <rect x="7" y="11" width="2" height="2" fill="#8B5E3C"/>
    <rect x="6" y="12" width="4" height="1" fill="#6B3F2A"/>
  </g>

  <!-- Ground (stays still) -->
  <rect x="4" y="13" width="8" height="1" fill="#5C4033"/>
  <rect x="3" y="14" width="10" height="1" fill="#4a3728"/>
</svg>