<svg xmlns="http://www.w3.org/2000/svg" viewBox="0 0 16 16" width="256" height="256" shape-rendering="crispEdges">
  <!-- Mascot 1: Classic Guard — triangular pine with watchful eyes and sturdy trunk -->
  <rect width="16" height="16" fill="#1a1a2e"/>

  <!-- Tree crown - tiered triangle -->
  <rect x="7" y="1" width="2" height="1" fill="#2d6a4f"/>
  <rect x="6" y="2" width="4" height="1" fill="#40916c"/>
  <rect x="5" y="3" width="6" height="1" fill="#40916c"/>
  <rect x="6" y="4" width="4" height="1" fill="#2d6a4f"/>
  <rect x="4" y="5" width="8" height="1" fill="#40916c"/>
  <rect x="3" y="6" width="10" height="1" fill="#40916c"/>
  <rect x="5" y="7" width="6" height="1" fill="#2d6a4f"/>
  <rect x="3" y="8" width="10" height="1" fill="#52b788"/>
  <rect x="2" y="9" width="12" height="1" fill="#40916c"/>
  <rect x="2" y="10" width="12" height="1" fill="#2d6a4f"/>

  <!-- Eyes - 2x2 white with dark pupil top-right -->
  <rect x="5" y="5" width="2" height="2" fill="#ffffff"/>
  <rect x="9" y="5" width="2" height="2" fill="#ffffff"/>
  <rect x="6" y="5" width="1" height="1" fill="#1a1a2e"/>
  <rect x="10" y="5" width="1" height="1" fill="#1a1a2e"/>

  <!-- Small smile -->
  <rect x="7" y="8" width="2" height="1" fill="#1a4d2e"/>

  <!-- Trunk -->
  <rect x="7" y="11" width="2" height="2" fill="#8B5E3C"/>
  <rect x="6" y="12" width="4" height="1" fill="#6B3F2A"/>

  <!-- Ground -->
  <rect x="4" y="13" width="8" height="1" fill="#5C4033"/>
  <rect x="3" y="14" width="10" height="1" fill="#4a3728"/>
</svg>