<svg xmlns="http://www.w3.org/2000/svg" viewBox="0 0 24 24" shape-rendering="crispEdges">
<!-- Cheer animation — bounce + sparkles — transparent background -->

<!-- Sparkles (pulse opacity) -->
<rect x="1" y="4" width="1" height="1" fill="#ffd166" opacity="0">
  <animate attributeName="opacity" values="0;0;1;1;0;0" dur="2s" repeatCount="indefinite"/>
</rect>
<rect x="22" y="3" width="1" height="1" fill="#ffd166" opacity="0">
  <animate attributeName="opacity" values="0;0;0;1;1;0" dur="2s" repeatCount="indefinite"/>
</rect>
<rect x="2" y="1" width="1" height="1" fill="#ffd166" opacity="0">
  <animate attributeName="opacity" values="0;0;1;0;0;0" dur="2s" repeatCount="indefinite"/>
</rect>
<rect x="21" y="6" width="1" height="1" fill="#52b788" opacity="0">
  <animate attributeName="opacity" values="0;0;0;1;0;0" dur="2s" repeatCount="indefinite"/>
</rect>
<rect x="0" y="8" width="1" height="1" fill="#52b788" opacity="0">
  <animate attributeName="opacity" values="0;0;1;0;0;0" dur="2s" repeatCount="indefinite"/>
</rect>
<rect x="23" y="1" width="1" height="1" fill="#ffd166" opacity="0">
  <animate attributeName="opacity" values="0;0;0;0;1;0" dur="2s" repeatCount="indefinite"/>
</rect>

<!-- Bouncing body -->
<g>
  <animateTransform attributeName="transform" type="translate" values="0,0; 0,0; 0,-1; 0,0; 0,-0.5; 0,0" dur="2s" repeatCount="indefinite"/>

  <!-- Star/tip -->
  <rect x="11" y="0" width="2" height="1" fill="#6fcf97"/>
  <!-- Top tier -->
  <rect x="10" y="1" width="4" height="1" fill="#52b788"/>
  <rect x="9" y="2" width="6" height="1" fill="#40916c"/>
  <rect x="8" y="3" width="8" height="1" fill="#2d6a4f"/>
  <!-- Middle tier -->
  <rect x="9" y="4" width="6" height="1" fill="#52b788"/>
  <rect x="8" y="5" width="8" height="1" fill="#6fcf97"/>
  <rect x="7" y="6" width="10" height="1" fill="#52b788"/>
  <rect x="6" y="7" width="12" height="1" fill="#40916c"/>
  <rect x="5" y="8" width="14" height="1" fill="#2d6a4f"/>
  <!-- Bottom tier -->
  <rect x="7" y="9" width="10" height="1" fill="#52b788"/>
  <rect x="6" y="10" width="12" height="1" fill="#6fcf97"/>
  <rect x="5" y="11" width="14" height="1" fill="#52b788"/>
  <rect x="4" y="12" width="16" height="1" fill="#40916c"/>
  <rect x="3" y="13" width="18" height="1" fill="#52b788"/>
  <rect x="3" y="14" width="18" height="1" fill="#40916c"/>
  <rect x="4" y="15" width="16" height="1" fill="#2d6a4f"/>

  <!-- Eyes -->
  <rect x="7" y="10" width="2" height="2" fill="white"/>
  <rect x="14" y="10" width="2" height="2" fill="white"/>
  <!-- Pupils -->
  <rect x="8" y="10" width="1" height="1" fill="#111111"/>
  <rect x="15" y="10" width="1" height="1" fill="#111111"/>

  <!-- Mouth -->
  <rect x="10" y="12" width="4" height="1" fill="#1a4d2e"/>

  <!-- Trunk -->
  <rect x="10" y="16" width="4" height="1" fill="#8B5E3C"/>
  <rect x="11" y="16" width="1" height="1" fill="#6B3F2A"/>
  <rect x="10" y="17" width="4" height="1" fill="#6B3F2A"/>
  <rect x="10" y="18" width="4" height="1" fill="#8B5E3C"/>
  <rect x="12" y="18" width="1" height="1" fill="#6B3F2A"/>
  <rect x="9" y="19" width="6" height="1" fill="#6B3F2A"/>
</g>

<!-- Ground (stays still) -->
<rect x="6" y="20" width="12" height="1" fill="#5C4033"/>
<rect x="8" y="20" width="1" height="1" fill="#6B3F2A"/>
<rect x="15" y="20" width="1" height="1" fill="#6B3F2A"/>
<rect x="5" y="21" width="14" height="1" fill="#4a3728"/>
</svg>