<svg xmlns="http://www.w3.org/2000/svg" viewBox="0 0 24 24" shape-rendering="crispEdges">
<!-- Idle animation — blink + scan + sway — dark background -->
<rect width="24" height="24" fill="#1a1a2e"/>

<!-- Tree group with gentle sway -->
<g>
  <animateTransform attributeName="transform" type="rotate" values="0 12 20; 2 12 20; 0 12 20; -2 12 20; 0 12 20" dur="6s" repeatCount="indefinite"/>

  <!-- Star/tip -->
  <rect x="11" y="0" width="2" height="1" fill="#6fcf97"/>
  <!-- Top tier -->
  <rect x="10" y="1" width="4" height="1" fill="#52b788"/>
  <rect x="9" y="2" width="6" height="1" fill="#40916c"/>
  <rect x="8" y="3" width="8" height="1" fill="#2d6a4f"/>
  <!-- Middle tier -->
  <rect x="9" y="4" width="6" height="1" fill="#52b788"/>
  <rect x="8" y="5" width="8" height="1" fill="#6fcf97"/>
  <rect x="7" y="6" width="10" height="1" fill="#52b788"/>
  <rect x="6" y="7" width="12" height="1" fill="#40916c"/>
  <rect x="5" y="8" width="14" height="1" fill="#2d6a4f"/>
  <!-- Bottom tier -->
  <rect x="7" y="9" width="10" height="1" fill="#52b788"/>
  <rect x="6" y="10" width="12" height="1" fill="#6fcf97"/>
  <rect x="5" y="11" width="14" height="1" fill="#52b788"/>
  <rect x="4" y="12" width="16" height="1" fill="#40916c"/>
  <rect x="3" y="13" width="18" height="1" fill="#52b788"/>
  <rect x="3" y="14" width="18" height="1" fill="#40916c"/>
  <rect x="4" y="15" width="16" height="1" fill="#2d6a4f"/>

  <!-- Left eye white — blinks every ~4s -->
  <rect x="7" y="10" width="2" height="2" fill="white">
    <animate attributeName="height" values="2;0;2" keyTimes="0;0.5;1" dur="0.15s" begin="4s;8s;12s;16s" fill="freeze"/>
  </rect>
  <!-- Right eye white -->
  <rect x="14" y="10" width="2" height="2" fill="white">
    <animate attributeName="height" values="2;0;2" keyTimes="0;0.5;1" dur="0.15s" begin="4s;8s;12s;16s" fill="freeze"/>
  </rect>

  <!-- Blink line (shows during blink as 2x1 white at y=11) -->
  <rect x="7" y="11" width="2" height="1" fill="white" opacity="0">
    <animate attributeName="opacity" values="0;1;0" keyTimes="0;0.5;1" dur="0.15s" begin="4s;8s;12s;16s" fill="freeze"/>
  </rect>
  <rect x="14" y="11" width="2" height="1" fill="white" opacity="0">
    <animate attributeName="opacity" values="0;1;0" keyTimes="0;0.5;1" dur="0.15s" begin="4s;8s;12s;16s" fill="freeze"/>
  </rect>

  <!-- Left pupil — scan + blink hide -->
  <rect x="8" y="10" width="1" height="1" fill="#1a1a2e">
    <animate attributeName="x" values="8;8;7;7;8;8;8;8;8;8" dur="8s" repeatCount="indefinite"/>
    <animate attributeName="y" values="10;10;10;10;11;11;10;10;10;10" dur="8s" repeatCount="indefinite"/>
    <animate attributeName="height" values="1;0;1" keyTimes="0;0.5;1" dur="0.15s" begin="4s;8s;12s;16s" fill="freeze"/>
  </rect>
  <!-- Right pupil -->
  <rect x="15" y="10" width="1" height="1" fill="#1a1a2e">
    <animate attributeName="x" values="15;15;14;14;15;15;15;15;15;15" dur="8s" repeatCount="indefinite"/>
    <animate attributeName="y" values="10;10;10;10;11;11;10;10;10;10" dur="8s" repeatCount="indefinite"/>
    <animate attributeName="height" values="1;0;1" keyTimes="0;0.5;1" dur="0.15s" begin="4s;8s;12s;16s" fill="freeze"/>
  </rect>

  <!-- Blink lids (foliage color covers eye area during blink) -->
  <rect x="7" y="10" width="2" height="1" fill="#6fcf97" opacity="0">
    <animate attributeName="opacity" values="0;1;0" keyTimes="0;0.5;1" dur="0.15s" begin="4s;8s;12s;16s" fill="freeze"/>
  </rect>
  <rect x="14" y="10" width="2" height="1" fill="#6fcf97" opacity="0">
    <animate attributeName="opacity" values="0;1;0" keyTimes="0;0.5;1" dur="0.15s" begin="4s;8s;12s;16s" fill="freeze"/>
  </rect>

  <!-- Mouth -->
  <rect x="10" y="12" width="4" height="1" fill="#1a4d2e"/>

  <!-- Trunk -->
  <rect x="10" y="16" width="4" height="1" fill="#8B5E3C"/>
  <rect x="11" y="16" width="1" height="1" fill="#6B3F2A"/>
  <rect x="10" y="17" width="4" height="1" fill="#6B3F2A"/>
  <rect x="10" y="18" width="4" height="1" fill="#8B5E3C"/>
  <rect x="12" y="18" width="1" height="1" fill="#6B3F2A"/>
  <rect x="9" y="19" width="6" height="1" fill="#6B3F2A"/>
</g>

<!-- Ground (stays still) -->
<rect x="6" y="20" width="12" height="1" fill="#5C4033"/>
<rect x="8" y="20" width="1" height="1" fill="#6B3F2A"/>
<rect x="15" y="20" width="1" height="1" fill="#6B3F2A"/>
<rect x="5" y="21" width="14" height="1" fill="#4a3728"/>
</svg>